<?xml version="1.0" standalone="no"?><!DOCTYPE svg PUBLIC "-//W3C//DTD SVG 1.1//EN" "http://www.w3.org/Graphics/SVG/1.1/DTD/svg11.dtd"><svg t="1492064451167" class="icon" style="" viewBox="0 0 1024 1024" version="1.1" xmlns="http://www.w3.org/2000/svg" p-id="1072" xmlns:xlink="http://www.w3.org/1999/xlink" width="200" height="200"><defs><style type="text/css"></style></defs><path d="M909.713252 988.379748C931.424125 1010.090616 966.6244 1010.090616 988.335273 988.379748 1010.046141 966.668876 1010.046141 931.4686 988.335273 909.757727L94.96125 16.383706C73.250379-5.327165 38.050102-5.327165 16.339231 16.383706-5.37164 38.094577-5.37164 73.294854 16.339231 95.005725L909.713252 988.379748Z" p-id="1073"></path><path d="M16.339231 909.757727C-5.37164 931.4686-5.37164 966.668876 16.339231 988.379748 38.050102 1010.090616 73.250379 1010.090616 94.96125 988.379748L988.335273 95.005725C1010.046141 73.294854 1010.046141 38.094577 988.335273 16.383706 966.6244-5.327165 931.424125-5.327165 909.713252 16.383706L16.339231 909.757727Z" p-id="1074"></path></svg>