<?xml version="1.0" standalone="no"?><!DOCTYPE svg PUBLIC "-//W3C//DTD SVG 1.1//EN" "http://www.w3.org/Graphics/SVG/1.1/DTD/svg11.dtd"><svg t="1489131757730" class="icon" style="" viewBox="0 0 1024 1024" version="1.1" xmlns="http://www.w3.org/2000/svg" p-id="6257" xmlns:xlink="http://www.w3.org/1999/xlink" width="200" height="200"><defs><style type="text/css"></style></defs><path d="M756.085646 263.149329 528.762267 68.551282c-2.460028-2.460028-9.036817-4.373611-16.628726-4.122901-4.331655-0.165776-8.351202 0.791016-11.893888 2.25639-4.079922 1.490957-8.015557 3.787256-11.361769 7.132444-0.083911 0.083911-0.159636 0.172939-0.242524 0.257873-0.939395 0.825808-1.711991 1.564635-2.278903 2.131547L260.458545 270.804682c-4.985548 4.988618-7.745405 26.869974 5.265934 39.885406 13.014408 13.011338 34.898835 10.253528 39.884382 5.26491l173.85563-149.765979L479.464491 934.186462c0.002047 7.05365 13.522991 24.477484 31.92613 24.479531 18.400069-0.002047 31.92613-17.425881 31.924083-24.479531L543.314705 164.80551l167.622672 143.493112c4.988618 4.990664 25.177426 22.986527 46.656623 1.509377C779.070126 288.327778 761.072217 268.137946 756.085646 263.149329z" p-id="6258"></path></svg>