<?xml version="1.0" standalone="no"?><!DOCTYPE svg PUBLIC "-//W3C//DTD SVG 1.1//EN" "http://www.w3.org/Graphics/SVG/1.1/DTD/svg11.dtd"><svg t="1489131543329" class="icon" style="" viewBox="0 0 1024 1024" version="1.1" xmlns="http://www.w3.org/2000/svg" p-id="3824" xmlns:xlink="http://www.w3.org/1999/xlink" width="200" height="200"><defs><style type="text/css"></style></defs><path d="M496.404302 843.87969c-0.002047 7.055696 1.552356 34.057677 31.924083 34.057677 30.375821-0.002047 31.92306-27.006074 31.925107-34.057677L560.253492 72.167646c-0.002047-7.05365-13.522991-24.477484-31.925107-24.479531-18.400069 0.002047-31.92613 17.425881-31.924083 24.479531L496.404302 843.87969z" p-id="3825"></path><path d="M508.211209 884.997156c-4.990664 4.987594-22.986527 25.178449-1.509377 46.656623 21.479197 21.476127 41.669028 3.478218 46.657646-1.50733l225.89996-194.59907c4.985548-4.988618 7.745405-26.869974-5.265934-39.884382-13.014408-13.012362-34.898835-10.254551-39.885406-5.265934L508.211209 884.997156z" p-id="3826"></path><path d="M328.782653 698.054463c-4.988618-4.990664-25.177426-22.986527-46.656623-1.5104-21.47715 21.479197-3.479241 41.670052 1.50733 46.658669l227.323379 194.598047c4.988618 4.985548 26.869974 7.744381 39.884382-5.265934 13.011338-13.014408 10.254551-34.898835 5.265934-39.884382L328.782653 698.054463z" p-id="3827"></path></svg>