<?xml version="1.0" standalone="no"?><!DOCTYPE svg PUBLIC "-//W3C//DTD SVG 1.1//EN" "http://www.w3.org/Graphics/SVG/1.1/DTD/svg11.dtd"><svg t="1489125321662" class="icon" style="" viewBox="0 0 1024 1024" version="1.1" xmlns="http://www.w3.org/2000/svg" p-id="12644" xmlns:xlink="http://www.w3.org/1999/xlink" width="200" height="200"><defs><style type="text/css"></style></defs><path d="M976.025502 470.43462 148.342391 470.43462 547.777962 70.975049c16.241983-16.241983 16.241983-42.552954 0-58.793937s-42.552954-16.241983-58.793937 0L18.60053 482.592607c-3.865996 3.860996-6.942993 8.492991-9.05599 13.623985-0.085 0.206-0.113 0.42-0.195 0.625999-1.852998 4.709995-2.953997 9.801989-2.953997 15.170984 0 5.367994 1.100999 10.458989 2.953997 15.170984 0.081 0.208 0.11 0.42 0.195 0.625999 2.112998 5.130994 5.190994 9.76399 9.05599 13.623985l470.384495 470.384495c8.120991 8.120991 18.75898 12.180987 29.396968 12.180987s21.275977-4.059996 29.396968-12.180987c16.241983-16.241983 16.241983-42.552954 0-58.793937L148.346391 553.59153l827.680111 0c22.967975 0 41.577955-18.62398 41.577955-41.577955C1017.604457 489.0586 998.994477 470.43462 976.025502 470.43462z" p-id="12645"></path></svg>