<?xml version="1.0" standalone="no"?><!DOCTYPE svg PUBLIC "-//W3C//DTD SVG 1.1//EN" "http://www.w3.org/Graphics/SVG/1.1/DTD/svg11.dtd"><svg t="1489719107484" class="icon" style="" viewBox="0 0 1024 1024" version="1.1" xmlns="http://www.w3.org/2000/svg" p-id="2262" xmlns:xlink="http://www.w3.org/1999/xlink" width="200" height="200"><defs><style type="text/css"></style></defs><path d="M484.266667 0 528.746667 0C675.093333 4.373333 817.386667 75.093333 909.12 189.333333 977.813333 271.893333 1016.64 377.066667 1024 483.84L1024 539.52C1015.573333 684.906667 943.36 824.96 828.266667 914.24 746.666667 980.053333 643.946667 1016.853333 539.733333 1024L484.586667 1024C336.746667 1015.466667 194.133333 940.906667 105.066667 822.293333 42.133333 741.653333 7.04 641.493333 0 539.84L0 484.373333C6.933333 382.506667 42.24 282.026667 105.386667 201.28 194.346667 82.986667 336.746667 8.64 484.266667 0M451.733333 260.266667C443.84 372.266667 448.96 485.12 448 597.44 446.4 624.213333 482.346667 623.573333 501.013333 624.213333 583.04 622.293333 665.92 629.013333 747.306667 619.306667 748.266667 604.266667 759.786667 586.986667 750.293333 572.906667 743.68 553.173333 719.36 562.666667 704.213333 560.106667 640.426667 560.853333 576.64 559.68 512.853333 560.853333 509.44 466.346667 515.84 371.52 511.04 277.013333 502.4 252.266667 472.426667 247.466667 451.733333 260.266667Z" p-id="2263"></path></svg>